<svg xmlns="http://www.w3.org/2000/svg" xmlns:xlink="http://www.w3.org/1999/xlink" fill="none" version="1.1" width="120" height="120" viewBox="0 0 120 120"><defs><clipPath id="master_svg0_10_95843"><rect x="0" y="0" width="120" height="120" rx="0"/></clipPath></defs><g clip-path="url(#master_svg0_10_95843)"><g><path d="M77.49951171875,69.37498474121094C71.89401171875,69.37498474121094,69.19851171875,72.49998474121094,59.99951171875,72.49998474121094C50.80031171875,72.49998474121094,48.12451171875,69.37498474121094,42.49951171875,69.37498474121094C28.00731171875,69.37498474121094,16.24951171875,81.13298474121093,16.24951171875,95.62498474121094C16.24951171875,95.62498474121094,16.24951171875,100.62498474121094,16.24951171875,100.62498474121094C16.24951171875,105.80098474121094,20.44873171875,109.99998474121094,25.62451171875,109.99998474121094C25.62451171875,109.99998474121094,94.37451171875,109.99998474121094,94.37451171875,109.99998474121094C99.55051171875,109.99998474121094,103.74951171875,105.80098474121094,103.74951171875,100.62498474121094C103.74951171875,100.62498474121094,103.74951171875,95.62498474121094,103.74951171875,95.62498474121094C103.74951171875,81.13298474121093,91.99151171875,69.37498474121094,77.49951171875,69.37498474121094C77.49951171875,69.37498474121094,77.49951171875,69.37498474121094,77.49951171875,69.37498474121094ZM94.37451171875,100.62498474121094C94.37451171875,100.62498474121094,25.62451171875,100.62498474121094,25.62451171875,100.62498474121094C25.62451171875,100.62498474121094,25.62451171875,95.62498474121094,25.62451171875,95.62498474121094C25.62451171875,86.32798474121094,33.20261171875,78.74998474121094,42.49951171875,78.74998474121094C45.35101171875,78.74998474121094,49.97991171875,81.87498474121094,59.99951171875,81.87498474121094C70.09701171875,81.87498474121094,74.62851171874999,78.74998474121094,77.49951171875,78.74998474121094C86.79651171875,78.74998474121094,94.37451171875,86.32798474121094,94.37451171875,95.62498474121094C94.37451171875,95.62498474121094,94.37451171875,100.62498474121094,94.37451171875,100.62498474121094C94.37451171875,100.62498474121094,94.37451171875,100.62498474121094,94.37451171875,100.62498474121094ZM59.99951171875,66.24998474121094C75.52701171875,66.24998474121094,88.12451171875,53.652284741210934,88.12451171875,38.12498474121094C88.12451171875,22.597584741210937,75.52701171875,9.999984741210938,59.99951171875,9.999984741210938C44.47211171875,9.999984741210938,31.87451171875,22.597584741210937,31.87451171875,38.12498474121094C31.87451171875,53.652284741210934,44.47211171875,66.24998474121094,59.99951171875,66.24998474121094C59.99951171875,66.24998474121094,59.99951171875,66.24998474121094,59.99951171875,66.24998474121094ZM59.99951171875,19.374984741210938C70.33151171875,19.374984741210938,78.74951171875,27.792884741210937,78.74951171875,38.12498474121094C78.74951171875,48.45698474121094,70.33151171875,56.87498474121094,59.99951171875,56.87498474121094C49.66741171875,56.87498474121094,41.24951171875,48.45698474121094,41.24951171875,38.12498474121094C41.24951171875,27.792884741210937,49.66741171875,19.374984741210938,59.99951171875,19.374984741210938C59.99951171875,19.374984741210938,59.99951171875,19.374984741210938,59.99951171875,19.374984741210938Z" fill="#FFFFFF" fill-opacity="0.6899999976158142"/></g></g></svg>