<svg xmlns="http://www.w3.org/2000/svg" xmlns:xlink="http://www.w3.org/1999/xlink" fill="none" version="1.1" width="14.583377838134766" height="16.66666603088379" viewBox="0 0 14.583377838134766 16.66666603088379"><g><path d="M7.29169,16.6667C8.44142,16.6667,9.37408,15.7341,9.37408,14.5833C9.37408,14.5833,5.20933,14.5833,5.20933,14.5833C5.20933,15.7341,6.14195,16.6667,7.29169,16.6667C7.29169,16.6667,7.29169,16.6667,7.29169,16.6667ZM14.3031,11.7933C13.6742,11.1175,12.4974,10.1009,12.4974,6.77083C12.4974,4.24153,10.724,2.2168,8.33271,1.72005C8.33271,1.72005,8.33271,1.04167,8.33271,1.04167C8.33271,0.466472,7.86656,0,7.29169,0C6.71682,0,6.25068,0.466472,6.25068,1.04167C6.25068,1.04167,6.25068,1.72005,6.25068,1.72005C3.8594,2.2168,2.08596,4.24153,2.08596,6.77083C2.08596,10.1009,0.9092,11.1175,0.280296,11.7933C0.0849833,12.0033,-0.0016051,12.2542,0.0000225062,12.5C0.00360323,13.0338,0.422548,13.5417,1.04494,13.5417C1.04494,13.5417,13.5384,13.5417,13.5384,13.5417C14.1608,13.5417,14.5801,13.0338,14.5833,12.5C14.585,12.2542,14.4984,12.0029,14.3031,11.7933C14.3031,11.7933,14.3031,11.7933,14.3031,11.7933C14.3031,11.7933,14.3031,11.7933,14.3031,11.7933Z" fill="#4FD272" fill-opacity="1"/></g></svg>