<svg xmlns="http://www.w3.org/2000/svg" xmlns:xlink="http://www.w3.org/1999/xlink" fill="none" version="1.1" width="1391" height="31" viewBox="0 0 1391 31"><defs><linearGradient x1="0" y1="0" x2="1" y2="0" id="master_svg0_1_0133"><stop offset="4.285714402794838%" stop-color="#FFFFFF" stop-opacity="0"/><stop offset="55.714285373687744%" stop-color="#165CFF" stop-opacity="0.800000011920929"/><stop offset="100%" stop-color="#FFFFFF" stop-opacity="0"/></linearGradient></defs><g transform="matrix(-1,0,0,1,2779,0)"><path d="M2623.02,5.34298L2777.52,2.99983L2777.48,0.00017000000000000348L2249.974,8.00017L2249.7290000000003,8.00389L2194.618,27.4043Q2192.925,28,2191.131,28L1977.548,28Q1975.88,28,1974.295,27.4833L1914.524,8.00514L1914.2930000000001,8.00015L1543.532,0.0003500000000000725L1543.4850000000001,2.203701L1402.5234,0.00018999999999991246L1402.5203,0.1983299999999999L1389.5228645,0.000180000000000069L1389.4771355,2.99983L1914.021,10.99638L1973.365,30.3356Q1975.404,31,1977.548,31L2191.131,31Q2193.438,31,2195.614,30.234L2250.263,10.99613L2623.02,5.49984L2623.02,5.34298Z" fill-rule="evenodd" fill="url(#master_svg0_1_0133)" fill-opacity="1"/></g></svg>