<svg xmlns="http://www.w3.org/2000/svg" xmlns:xlink="http://www.w3.org/1999/xlink" fill="none" version="1.1" width="12.5" height="16.66666603088379" viewBox="0 0 12.5 16.66666603088379"><g><path d="M7.29167,4.42708C7.29167,4.42708,7.29167,0,7.29167,0C7.29167,0,0.78125,0,0.78125,0C0.348307,0,0,0.348307,0,0.78125C0,0.78125,0,15.8854,0,15.8854C0,16.3183,0.348307,16.6667,0.78125,16.6667C0.78125,16.6667,11.7188,16.6667,11.7188,16.6667C12.1517,16.6667,12.5,16.3183,12.5,15.8854C12.5,15.8854,12.5,5.20833,12.5,5.20833C12.5,5.20833,8.07292,5.20833,8.07292,5.20833C7.64323,5.20833,7.29167,4.85677,7.29167,4.42708C7.29167,4.42708,7.29167,4.42708,7.29167,4.42708ZM9.41342,11.4587C9.41342,11.4587,7.29167,11.4587,7.29167,11.4587C7.29167,11.4587,7.29167,14.0628,7.29167,14.0628C7.29167,14.3506,7.05859,14.5837,6.77083,14.5837C6.77083,14.5837,5.72917,14.5837,5.72917,14.5837C5.44141,14.5837,5.20833,14.3506,5.20833,14.0628C5.20833,14.0628,5.20833,11.4587,5.20833,11.4587C5.20833,11.4587,3.08659,11.4587,3.08659,11.4587C2.62174,11.4587,2.38965,10.8958,2.71972,10.568C2.71972,10.568,5.8584,7.4528,5.8584,7.4528C6.07487,7.23763,6.42448,7.23763,6.64095,7.4528C6.64095,7.4528,9.77958,10.568,9.77958,10.568C10.11,10.8958,9.87825,11.4587,9.41342,11.4587C9.41342,11.4587,9.41342,11.4587,9.41342,11.4587ZM12.2722,3.41797C12.2722,3.41797,9.08525,0.227865,9.08525,0.227865C8.93883,0.0813802,8.74025,0,8.53192,0C8.53192,0,8.33333,0,8.33333,0C8.33333,0,8.33333,4.16667,8.33333,4.16667C8.33333,4.16667,12.5,4.16667,12.5,4.16667C12.5,4.16667,12.5,3.9681,12.5,3.9681C12.5,3.76302,12.4186,3.56445,12.2722,3.41797C12.2722,3.41797,12.2722,3.41797,12.2722,3.41797Z" fill="#FFFFFF" fill-opacity="1"/></g></svg>