<svg xmlns="http://www.w3.org/2000/svg" xmlns:xlink="http://www.w3.org/1999/xlink" fill="none" version="1.1" width="20" height="20" viewBox="0 0 20 20"><g><path d="M16.1801,6.93945C16.2199,7.26016,16.4828,7.5,16.7953,7.5C16.7953,7.5,17.425,7.5,17.425,7.5C17.7965,7.5,18.0922,7.16523,18.05,6.7832C17.8805,5.25547,17.175,3.87187,16.0918,2.98789C15.4133,2.43437,14.966,1.55234,14.8426,0.560156C14.8031,0.239844,14.5398,0,14.2277,0C14.2277,0,13.598,0,13.598,0C13.2266,0,12.9305,0.334766,12.973,0.716797C13.1426,2.24453,13.848,3.62813,14.9312,4.51211C15.6094,5.06563,16.057,5.94766,16.1801,6.93945C16.1801,6.93945,16.1801,6.93945,16.1801,6.93945C16.1801,6.93945,16.1801,6.93945,16.1801,6.93945ZM11.9613,6.93945C12.0012,7.26016,12.2641,7.5,12.5766,7.5C12.5766,7.5,13.2062,7.5,13.2062,7.5C13.5777,7.5,13.8734,7.16523,13.8312,6.7832C13.6617,5.25547,12.9563,3.87187,11.873,2.98789C11.1945,2.43437,10.7473,1.55234,10.6238,0.560156C10.5844,0.239844,10.3211,0,10.009,0C10.009,0,9.3793,0,9.3793,0C9.00781,0,8.71172,0.334766,8.7543,0.716797C8.92383,2.24453,9.6293,3.62813,10.7125,4.51211C11.3906,5.06563,11.8383,5.94766,11.9613,6.93945C11.9613,6.93945,11.9613,6.93945,11.9613,6.93945C11.9613,6.93945,11.9613,6.93945,11.9613,6.93945ZM18.75,10C18.75,10,10,10,10,10C10,10,5.6668,6.75,5.6668,6.75C5.23407,6.42542,4.70773,6.24997,4.1668,6.25C4.1668,6.25,2.5,6.25,2.5,6.25C1.11914,6.25,0,7.36914,0,8.75C0,8.75,0,17.5,0,17.5C0,18.8809,1.11914,20,2.5,20C2.5,20,17.5,20,17.5,20C18.8809,20,20,18.8809,20,17.5C20,17.5,20,11.25,20,11.25C20,10.5598,19.4402,10,18.75,10C18.75,10,18.75,10,18.75,10ZM5,17.1875C5,17.3602,4.86016,17.5,4.6875,17.5C4.6875,17.5,4.0625,17.5,4.0625,17.5C3.88984,17.5,3.75,17.3602,3.75,17.1875C3.75,17.1875,3.75,12.8125,3.75,12.8125C3.75,12.6398,3.88984,12.5,4.0625,12.5C4.0625,12.5,4.6875,12.5,4.6875,12.5C4.86016,12.5,5,12.6398,5,12.8125C5,12.8125,5,17.1875,5,17.1875C5,17.1875,5,17.1875,5,17.1875ZM8.75,17.1875C8.75,17.3602,8.61016,17.5,8.4375,17.5C8.4375,17.5,7.8125,17.5,7.8125,17.5C7.63984,17.5,7.5,17.3602,7.5,17.1875C7.5,17.1875,7.5,12.8125,7.5,12.8125C7.5,12.6398,7.63984,12.5,7.8125,12.5C7.8125,12.5,8.4375,12.5,8.4375,12.5C8.61016,12.5,8.75,12.6398,8.75,12.8125C8.75,12.8125,8.75,17.1875,8.75,17.1875C8.75,17.1875,8.75,17.1875,8.75,17.1875ZM12.5,17.1875C12.5,17.3602,12.3602,17.5,12.1875,17.5C12.1875,17.5,11.5625,17.5,11.5625,17.5C11.3898,17.5,11.25,17.3602,11.25,17.1875C11.25,17.1875,11.25,12.8125,11.25,12.8125C11.25,12.6398,11.3898,12.5,11.5625,12.5C11.5625,12.5,12.1875,12.5,12.1875,12.5C12.3602,12.5,12.5,12.6398,12.5,12.8125C12.5,12.8125,12.5,17.1875,12.5,17.1875C12.5,17.1875,12.5,17.1875,12.5,17.1875ZM16.25,17.1875C16.25,17.3602,16.1102,17.5,15.9375,17.5C15.9375,17.5,15.3125,17.5,15.3125,17.5C15.1398,17.5,15,17.3602,15,17.1875C15,17.1875,15,12.8125,15,12.8125C15,12.6398,15.1398,12.5,15.3125,12.5C15.3125,12.5,15.9375,12.5,15.9375,12.5C16.1102,12.5,16.25,12.6398,16.25,12.8125C16.25,12.8125,16.25,17.1875,16.25,17.1875C16.25,17.1875,16.25,17.1875,16.25,17.1875ZM2.5,5C3.88086,5,5,3.88086,5,2.5C5,1.11914,3.88086,0,2.5,0C1.11914,0,0,1.11914,0,2.5C0,3.88086,1.11914,5,2.5,5C2.5,5,2.5,5,2.5,5Z" fill="#2F6DFF" fill-opacity="0.699999988079071"/></g></svg>