<svg xmlns="http://www.w3.org/2000/svg" xmlns:xlink="http://www.w3.org/1999/xlink" fill="none" version="1.1" width="20" height="20" viewBox="0 0 20 20"><g><path d="M17.8571,0C17.8571,0,2.14286,0,2.14286,0C0.959821,0,0,0.959821,0,2.14286C0,2.14286,0,17.8571,0,17.8571C0,19.0402,0.959821,20,2.14286,20C2.14286,20,17.8571,20,17.8571,20C19.0402,20,20,19.0402,20,17.8571C20,17.8571,20,2.14286,20,2.14286C20,0.959821,19.0402,0,17.8571,0C17.8571,0,17.8571,0,17.8571,0ZM7.14286,15C7.14286,15.3946,6.82321,15.7143,6.42857,15.7143C6.42857,15.7143,5,15.7143,5,15.7143C4.60536,15.7143,4.28571,15.3946,4.28571,15C4.28571,15,4.28571,9.28571,4.28571,9.28571C4.28571,8.89107,4.60536,8.57143,5,8.57143C5,8.57143,6.42857,8.57143,6.42857,8.57143C6.82321,8.57143,7.14286,8.89107,7.14286,9.28571C7.14286,9.28571,7.14286,15,7.14286,15C7.14286,15,7.14286,15,7.14286,15ZM11.4286,15C11.4286,15.3946,11.1089,15.7143,10.7143,15.7143C10.7143,15.7143,9.28571,15.7143,9.28571,15.7143C8.89107,15.7143,8.57143,15.3946,8.57143,15C8.57143,15,8.57143,5,8.57143,5C8.57143,4.60536,8.89107,4.28571,9.28571,4.28571C9.28571,4.28571,10.7143,4.28571,10.7143,4.28571C11.1089,4.28571,11.4286,4.60536,11.4286,5C11.4286,5,11.4286,15,11.4286,15C11.4286,15,11.4286,15,11.4286,15ZM15.7143,15C15.7143,15.3946,15.3946,15.7143,15,15.7143C15,15.7143,13.5714,15.7143,13.5714,15.7143C13.1768,15.7143,12.8571,15.3946,12.8571,15C12.8571,15,12.8571,12.1429,12.8571,12.1429C12.8571,11.7482,13.1768,11.4286,13.5714,11.4286C13.5714,11.4286,15,11.4286,15,11.4286C15.3946,11.4286,15.7143,11.7482,15.7143,12.1429C15.7143,12.1429,15.7143,15,15.7143,15C15.7143,15,15.7143,15,15.7143,15Z" fill="#2F6DFF" fill-opacity="0.699999988079071"/></g></svg>