<svg xmlns="http://www.w3.org/2000/svg" xmlns:xlink="http://www.w3.org/1999/xlink" fill="none" version="1.1" width="24" height="24" viewBox="0 0 24 24"><defs><clipPath id="master_svg0_15_31915"><rect x="0" y="0" width="24" height="24" rx="0"/></clipPath></defs><g clip-path="url(#master_svg0_15_31915)"><g><path d="M13.872690763549805,5.7494499999999995C14.907700763549805,5.7494499999999995,15.747420763549805,4.90973,15.747420763549805,3.87473C15.747420763549805,2.839721,14.907700763549805,2,13.872690763549805,2C12.837690763549805,2,11.997970763549805,2.839721,11.997970763549805,3.87473C11.997970763549805,4.90973,12.837690763549805,5.7494499999999995,13.872690763549805,5.7494499999999995C13.872690763549805,5.7494499999999995,13.872690763549805,5.7494499999999995,13.872690763549805,5.7494499999999995ZM17.563560763549805,11.57282C17.563560763549805,11.57282,16.653560763549805,11.11195,16.653560763549805,11.11195C16.653560763549805,11.11195,16.274660763549804,9.96368,16.274660763549804,9.96368C15.700550763549805,8.22174,14.099220763549805,7.00317,12.283080763549805,6.99927C10.877040763549804,6.99536,10.099810763549804,7.39374,8.639090763549804,7.9835C7.795460763549805,8.32329,7.1041507635498045,8.96773,6.697963763549804,9.78792C6.697963763549804,9.78792,6.436283763549804,10.31909,6.436283763549804,10.31909C6.131640763549805,10.93619,6.377698763549804,11.68608,6.990890763549805,11.99463C7.600170763549805,12.3032,8.342250763549805,12.0532,8.650800763549805,11.43612C8.650800763549805,11.43612,8.912480763549805,10.90495,8.912480763549805,10.90495C9.049180763549804,10.63155,9.275710763549805,10.41674,9.556920763549805,10.30347C9.556920763549805,10.30347,10.603640763549805,9.88166,10.603640763549805,9.88166C10.603640763549805,9.88166,10.009980763549805,12.2524,10.009980763549805,12.2524C9.806880763549804,13.0648,10.025600763549804,13.9279,10.591920763549805,14.5489C10.591920763549805,14.5489,12.931430763549805,17.1033,12.931430763549805,17.1033C13.212630763549804,17.4118,13.411820763549805,17.7828,13.513370763549805,18.1851C13.513370763549805,18.1851,14.228110763549804,21.048,14.228110763549804,21.048C14.396050763549805,21.7159,15.075640763549805,22.126,15.743510763549805,21.958C16.411360763549805,21.7901,16.821460763549805,21.1105,16.653560763549805,20.4426C16.653560763549805,20.4426,15.786460763549805,16.9666,15.786460763549805,16.9666C15.684930763549804,16.5643,15.485740763549805,16.1893,15.204530763549805,15.8847C15.204530763549805,15.8847,13.427450763549805,13.9436,13.427450763549805,13.9436C13.427450763549805,13.9436,14.099220763549805,11.26036,14.099220763549805,11.26036C14.099220763549805,11.26036,14.314040763549805,11.9048,14.314040763549805,11.9048C14.521040763549804,12.5336,14.966280763549804,13.0531,15.552130763549805,13.3499C15.552130763549805,13.3499,16.462160763549804,13.8108,16.462160763549804,13.8108C17.071460763549805,14.1193,17.813560763549805,13.8694,18.122060763549804,13.2523C18.422760763549803,12.6391,18.176760763549805,11.88136,17.563560763549805,11.57282C17.563560763549805,11.57282,17.563560763549805,11.57282,17.563560763549805,11.57282C17.563560763549805,11.57282,17.563560763549805,11.57282,17.563560763549805,11.57282ZM8.623460763549804,17.0681C8.498480763549804,17.3845,8.311010763549804,17.669600000000003,8.068860763549804,17.9078C8.068860763549804,17.9078,6.116017763549805,19.8646,6.116017763549805,19.8646C5.627808763549805,20.3528,5.627808763549805,21.1456,6.116017763549805,21.6338C6.604227763549805,22.1221,7.393170763549804,22.1221,7.881380763549805,21.6338C7.881380763549805,21.6338,10.201360763549804,19.3139,10.201360763549804,19.3139C10.439600763549805,19.0756,10.627080763549806,18.7905,10.755960763549805,18.4741C10.755960763549805,18.4741,11.283230763549804,17.154,11.283230763549804,17.154C9.123390763549805,14.7989,9.771730763549805,15.5215,9.431940763549804,15.0567C9.431940763549804,15.0567,8.623460763549804,17.0681,8.623460763549804,17.0681C8.623460763549804,17.0681,8.623460763549804,17.0681,8.623460763549804,17.0681C8.623460763549804,17.0681,8.623460763549804,17.0681,8.623460763549804,17.0681Z" fill="#2F6DFF" fill-opacity="0.699999988079071"/></g></g></svg>