<svg xmlns="http://www.w3.org/2000/svg" xmlns:xlink="http://www.w3.org/1999/xlink" fill="none" version="1.1" width="20" height="15" viewBox="0 0 20 15"><g><path d="M19.375,12.5C19.375,12.5,2.5,12.5,2.5,12.5C2.5,12.5,2.5,0.625,2.5,0.625C2.5,0.279687,2.22031,0,1.875,0C1.875,0,0.625,0,0.625,0C0.279687,0,0,0.279687,0,0.625C0,0.625,0,13.75,0,13.75C0,14.4402,0.559766,15,1.25,15C1.25,15,19.375,15,19.375,15C19.7203,15,20,14.7203,20,14.375C20,14.375,20,13.125,20,13.125C20,12.7797,19.7203,12.5,19.375,12.5C19.375,12.5,19.375,12.5,19.375,12.5ZM18.125,1.25C18.125,1.25,13.5133,1.25,13.5133,1.25C12.6781,1.25,12.2598,2.25977,12.8504,2.85039C12.8504,2.85039,14.116,4.11602,14.116,4.11602C14.116,4.11602,11.25,6.98242,11.25,6.98242C11.25,6.98242,8.38398,4.11641,8.38398,4.11641C7.8957,3.62813,7.1043,3.62813,6.61641,4.11641C6.61641,4.11641,3.9332,6.79961,3.9332,6.79961C3.68906,7.04375,3.68906,7.43945,3.9332,7.68359C3.9332,7.68359,4.8168,8.56719,4.8168,8.56719C5.06094,8.81133,5.45664,8.81133,5.70078,8.56719C5.70078,8.56719,7.5,6.76758,7.5,6.76758C7.5,6.76758,10.366,9.63359,10.366,9.63359C10.8543,10.1219,11.6457,10.1219,12.1336,9.63359C12.1336,9.63359,15.8836,5.88359,15.8836,5.88359C15.8836,5.88359,17.1492,7.14922,17.1492,7.14922C17.7398,7.73984,18.7496,7.32148,18.7496,6.48633C18.7496,6.48633,18.7496,1.875,18.7496,1.875C18.75,1.52969,18.4703,1.25,18.125,1.25C18.125,1.25,18.125,1.25,18.125,1.25Z" fill="#2F6DFF" fill-opacity="0.699999988079071"/></g></svg>