<svg xmlns="http://www.w3.org/2000/svg" xmlns:xlink="http://www.w3.org/1999/xlink" fill="none" version="1.1" width="17.5" height="20" viewBox="0 0 17.5 20"><g><path d="M8.75,10C11.5117,10,13.75,7.76172,13.75,5C13.75,2.23828,11.5117,0,8.75,0C5.98828,0,3.75,2.23828,3.75,5C3.75,7.76172,5.98828,10,8.75,10C8.75,10,8.75,10,8.75,10ZM12.4922,11.2734C12.4922,11.2734,10.625,18.75,10.625,18.75C10.625,18.75,9.375,13.4375,9.375,13.4375C9.375,13.4375,10.625,11.25,10.625,11.25C10.625,11.25,6.875,11.25,6.875,11.25C6.875,11.25,8.125,13.4375,8.125,13.4375C8.125,13.4375,6.875,18.75,6.875,18.75C6.875,18.75,5.00781,11.2734,5.00781,11.2734C2.22266,11.4062,0,13.6836,0,16.5C0,16.5,0,18.125,0,18.125C0,19.1602,0.839844,20,1.875,20C1.875,20,15.625,20,15.625,20C16.6602,20,17.5,19.1602,17.5,18.125C17.5,18.125,17.5,16.5,17.5,16.5C17.5,13.6836,15.2773,11.4062,12.4922,11.2734C12.4922,11.2734,12.4922,11.2734,12.4922,11.2734C12.4922,11.2734,12.4922,11.2734,12.4922,11.2734Z" fill="#2F6DFF" fill-opacity="0.699999988079071"/></g></svg>