<svg xmlns="http://www.w3.org/2000/svg" xmlns:xlink="http://www.w3.org/1999/xlink" fill="none" version="1.1" width="20" height="20" viewBox="0 0 20 20"><g><path d="M20,5C20,5,20,1.25,20,1.25C20,0.559766,19.4402,0,18.75,0C18.75,0,15,0,15,0C14.3098,0,13.75,0.559766,13.75,1.25C13.75,1.25,6.25,1.25,6.25,1.25C6.25,0.559766,5.69023,0,5,0C5,0,1.25,0,1.25,0C0.559766,0,0,0.559766,0,1.25C0,1.25,0,5,0,5C0,5.69023,0.559766,6.25,1.25,6.25C1.25,6.25,1.25,13.75,1.25,13.75C0.559766,13.75,0,14.3098,0,15C0,15,0,18.75,0,18.75C0,19.4402,0.559766,20,1.25,20C1.25,20,5,20,5,20C5.69023,20,6.25,19.4402,6.25,18.75C6.25,18.75,13.75,18.75,13.75,18.75C13.75,19.4402,14.3098,20,15,20C15,20,18.75,20,18.75,20C19.4402,20,20,19.4402,20,18.75C20,18.75,20,15,20,15C20,14.3098,19.4402,13.75,18.75,13.75C18.75,13.75,18.75,6.25,18.75,6.25C19.4402,6.25,20,5.69023,20,5C20,5,20,5,20,5ZM16.25,2.5C16.25,2.5,17.5,2.5,17.5,2.5C17.5,2.5,17.5,3.75,17.5,3.75C17.5,3.75,16.25,3.75,16.25,3.75C16.25,3.75,16.25,2.5,16.25,2.5C16.25,2.5,16.25,2.5,16.25,2.5ZM2.5,2.5C2.5,2.5,3.75,2.5,3.75,2.5C3.75,2.5,3.75,3.75,3.75,3.75C3.75,3.75,2.5,3.75,2.5,3.75C2.5,3.75,2.5,2.5,2.5,2.5C2.5,2.5,2.5,2.5,2.5,2.5ZM3.75,17.5C3.75,17.5,2.5,17.5,2.5,17.5C2.5,17.5,2.5,16.25,2.5,16.25C2.5,16.25,3.75,16.25,3.75,16.25C3.75,16.25,3.75,17.5,3.75,17.5C3.75,17.5,3.75,17.5,3.75,17.5ZM17.5,17.5C17.5,17.5,16.25,17.5,16.25,17.5C16.25,17.5,16.25,16.25,16.25,16.25C16.25,16.25,17.5,16.25,17.5,16.25C17.5,16.25,17.5,17.5,17.5,17.5C17.5,17.5,17.5,17.5,17.5,17.5ZM16.25,13.75C16.25,13.75,15,13.75,15,13.75C14.3098,13.75,13.75,14.3098,13.75,15C13.75,15,13.75,16.25,13.75,16.25C13.75,16.25,6.25,16.25,6.25,16.25C6.25,16.25,6.25,15,6.25,15C6.25,14.3098,5.69023,13.75,5,13.75C5,13.75,3.75,13.75,3.75,13.75C3.75,13.75,3.75,6.25,3.75,6.25C3.75,6.25,5,6.25,5,6.25C5.69023,6.25,6.25,5.69023,6.25,5C6.25,5,6.25,3.75,6.25,3.75C6.25,3.75,13.75,3.75,13.75,3.75C13.75,3.75,13.75,5,13.75,5C13.75,5.69023,14.3098,6.25,15,6.25C15,6.25,16.25,6.25,16.25,6.25C16.25,6.25,16.25,13.75,16.25,13.75C16.25,13.75,16.25,13.75,16.25,13.75Z" fill="#2F6DFF" fill-opacity="0.699999988079071"/></g></svg>