<svg xmlns="http://www.w3.org/2000/svg" xmlns:xlink="http://www.w3.org/1999/xlink" fill="none" version="1.1" width="20" height="17.5" viewBox="0 0 20 17.5"><g><path d="M2.41289,14.4141C2.41289,14.4141,3.09648,13.627,3.09648,13.627C3.23253,13.4752,3.30364,13.2762,3.29453,13.0727C3.29453,13.0727,3.29453,12.9434,3.29453,12.9434C3.29453,12.6562,3.14453,12.5,2.85156,12.5C2.85156,12.5,0.625,12.5,0.625,12.5C0.54212,12.5,0.462634,12.5329,0.404029,12.5915C0.345424,12.6501,0.3125,12.7296,0.3125,12.8125C0.3125,12.8125,0.3125,13.4375,0.3125,13.4375C0.3125,13.5204,0.345424,13.5999,0.404029,13.6585C0.462634,13.7171,0.54212,13.75,0.625,13.75C0.625,13.75,1.5168,13.75,1.5168,13.75C1.36526,13.9027,1.22183,14.0632,1.08711,14.2309C1.08711,14.2309,0.867969,14.5043,0.867969,14.5043C0.711719,14.7023,0.662891,14.9,0.758594,15.0855C0.758594,15.0855,0.799609,15.1609,0.799609,15.1609C0.916797,15.3859,1.04531,15.4688,1.27813,15.4688C1.27813,15.4688,1.46289,15.4688,1.46289,15.4688C1.86641,15.4688,2.08555,15.5641,2.08555,15.8238C2.08555,16.0082,1.92148,16.1449,1.52461,16.1449C1.31724,16.1433,1.11211,16.1019,0.920312,16.023C0.666797,15.8715,0.461719,15.8863,0.310937,16.1449C0.310937,16.1449,0.0925781,16.5086,0.0925781,16.5086C-0.0527344,16.748,-0.0320313,16.9664,0.195312,17.1313C0.496484,17.3145,0.991406,17.5,1.64062,17.5C2.975,17.5,3.53516,16.6113,3.53516,15.7766C3.53398,15.2148,3.17891,14.6141,2.41289,14.4141C2.41289,14.4141,2.41289,14.4141,2.41289,14.4141C2.41289,14.4141,2.41289,14.4141,2.41289,14.4141ZM19.375,7.5C19.375,7.5,6.875,7.5,6.875,7.5C6.70924,7.5,6.55027,7.56585,6.43306,7.68306C6.31585,7.80027,6.25,7.95924,6.25,8.125C6.25,8.125,6.25,9.375,6.25,9.375C6.25,9.54076,6.31585,9.69973,6.43306,9.81694C6.55027,9.93415,6.70924,10,6.875,10C6.875,10,19.375,10,19.375,10C19.5408,10,19.6997,9.93415,19.8169,9.81694C19.9342,9.69973,20,9.54076,20,9.375C20,9.375,20,8.125,20,8.125C20,7.95924,19.9342,7.80027,19.8169,7.68306C19.6997,7.56585,19.5408,7.5,19.375,7.5C19.375,7.5,19.375,7.5,19.375,7.5ZM19.375,1.25C19.375,1.25,6.875,1.25,6.875,1.25C6.70924,1.25,6.55027,1.31585,6.43306,1.43306C6.31585,1.55027,6.25,1.70924,6.25,1.875C6.25,1.875,6.25,3.125,6.25,3.125C6.25,3.29076,6.31585,3.44973,6.43306,3.56694C6.55027,3.68415,6.70924,3.75,6.875,3.75C6.875,3.75,19.375,3.75,19.375,3.75C19.5408,3.75,19.6997,3.68415,19.8169,3.56694C19.9342,3.44973,20,3.29076,20,3.125C20,3.125,20,1.875,20,1.875C20,1.70924,19.9342,1.55027,19.8169,1.43306C19.6997,1.31585,19.5408,1.25,19.375,1.25C19.375,1.25,19.375,1.25,19.375,1.25C19.375,1.25,19.375,1.25,19.375,1.25ZM19.375,13.75C19.375,13.75,6.875,13.75,6.875,13.75C6.70924,13.75,6.55027,13.8158,6.43306,13.9331C6.31585,14.0503,6.25,14.2092,6.25,14.375C6.25,14.375,6.25,15.625,6.25,15.625C6.25,15.7908,6.31585,15.9497,6.43306,16.0669C6.55027,16.1842,6.70924,16.25,6.875,16.25C6.875,16.25,19.375,16.25,19.375,16.25C19.5408,16.25,19.6997,16.1842,19.8169,16.0669C19.9342,15.9497,20,15.7908,20,15.625C20,15.625,20,14.375,20,14.375C20,14.2092,19.9342,14.0503,19.8169,13.9331C19.6997,13.8158,19.5408,13.75,19.375,13.75C19.375,13.75,19.375,13.75,19.375,13.75ZM0.625,5C0.625,5,3.125,5,3.125,5C3.20788,5,3.28737,4.96708,3.34597,4.90847C3.40458,4.84987,3.4375,4.77038,3.4375,4.6875C3.4375,4.6875,3.4375,4.0625,3.4375,4.0625C3.4375,3.97962,3.40458,3.90013,3.34597,3.84153C3.28737,3.78292,3.20788,3.75,3.125,3.75C3.125,3.75,2.5,3.75,2.5,3.75C2.5,3.75,2.5,0.3125,2.5,0.3125C2.5,0.22962,2.46708,0.150134,2.40847,0.0915292C2.34987,0.0329241,2.27038,1.38778e-16,2.1875,0C2.1875,0,1.25,0,1.25,0C1.19208,0.000103377,1.13532,0.0163034,1.08607,0.0467916C1.03682,0.0772798,0.997014,0.120856,0.971094,0.172656C0.971094,0.172656,0.658594,0.797656,0.658594,0.797656C0.634774,0.845258,0.623507,0.898155,0.625864,0.951332C0.62822,1.00451,0.64412,1.0562,0.672056,1.10151C0.699993,1.14682,0.739039,1.18424,0.785494,1.21023C0.831949,1.23622,0.884271,1.24991,0.9375,1.25C0.9375,1.25,1.25,1.25,1.25,1.25C1.25,1.25,1.25,3.75,1.25,3.75C1.25,3.75,0.625,3.75,0.625,3.75C0.54212,3.75,0.462634,3.78292,0.404029,3.84153C0.345424,3.90013,0.3125,3.97962,0.3125,4.0625C0.3125,4.0625,0.3125,4.6875,0.3125,4.6875C0.3125,4.77038,0.345424,4.84987,0.404029,4.90847C0.462634,4.96708,0.54212,5,0.625,5C0.625,5,0.625,5,0.625,5ZM0.472266,11.25C0.472266,11.25,3.125,11.25,3.125,11.25C3.20788,11.25,3.28737,11.2171,3.34597,11.1585C3.40458,11.0999,3.4375,11.0204,3.4375,10.9375C3.4375,10.9375,3.4375,10.3125,3.4375,10.3125C3.4375,10.2296,3.40458,10.1501,3.34597,10.0915C3.28737,10.0329,3.20788,10,3.125,10C3.125,10,1.61406,10,1.61406,10C1.74258,9.59805,3.50234,9.27031,3.50234,7.79531C3.50234,6.66016,2.52578,6.25,1.76523,6.25C0.930859,6.25,0.444922,6.64062,0.184766,6.98242C0.0140625,7.20078,0.0675781,7.40586,0.294141,7.58281C0.294141,7.58281,0.629297,7.85156,0.629297,7.85156C0.848438,8.02969,1.05898,7.94805,1.25898,7.75625C1.35764,7.65959,1.4904,7.6057,1.62852,7.60625C1.75859,7.60625,1.99102,7.66719,1.99102,7.94805C1.99219,8.44492,0,8.80117,0,10.648C0,10.648,0,10.8043,0,10.8043C0,11.0938,0.198437,11.25,0.472266,11.25C0.472266,11.25,0.472266,11.25,0.472266,11.25Z" fill="#2F6DFF" fill-opacity="0.699999988079071"/></g></svg>