<svg xmlns="http://www.w3.org/2000/svg" xmlns:xlink="http://www.w3.org/1999/xlink" fill="none" version="1.1" width="27.70833396911621" height="31.666667938232422" viewBox="0 0 27.70833396911621 31.666667938232422"><defs><linearGradient x1="0.5" y1="0" x2="0.5" y2="1" id="master_svg0_1_5758"><stop offset="0%" stop-color="#0098FA" stop-opacity="1"/><stop offset="100%" stop-color="#0098FA" stop-opacity="0"/></linearGradient></defs><g><path d="M27.7083,5.9375C27.7083,5.9375,27.7083,21.7708,27.7083,21.7708C27.7083,24.9755,23.8969,27.7083,19.6666,27.7083C19.6666,27.7083,23.5619,30.7835,23.5619,30.7835C23.9297,31.074,23.7229,31.6667,23.2552,31.6667C23.2552,31.6667,4.45312,31.6667,4.45312,31.6667C3.98443,31.6667,3.77946,31.0732,4.14654,30.7835C4.14654,30.7835,8.04172,27.7083,8.04172,27.7083C3.8235,27.7083,0,24.9842,0,21.7708C0,21.7708,0,5.9375,0,5.9375C0,2.65834,3.95833,0,7.91667,0C7.91667,0,19.7917,0,19.7917,0C23.8119,0,27.7083,2.65834,27.7083,5.9375C27.7083,5.9375,27.7083,5.9375,27.7083,5.9375ZM12.3698,14.349C12.3698,14.349,12.3698,7.42188,12.3698,7.42188C12.3698,6.60207,11.7052,5.9375,10.8854,5.9375C10.8854,5.9375,4.45312,5.9375,4.45312,5.9375C3.63332,5.9375,2.96875,6.60207,2.96875,7.42188C2.96875,7.42188,2.96875,14.349,2.96875,14.349C2.96875,15.1688,3.63332,15.8333,4.45312,15.8333C4.45312,15.8333,10.8854,15.8333,10.8854,15.8333C11.7052,15.8333,12.3698,15.1688,12.3698,14.349C12.3698,14.349,12.3698,14.349,12.3698,14.349ZM24.7396,14.349C24.7396,14.349,24.7396,7.42188,24.7396,7.42188C24.7396,6.60207,24.0751,5.9375,23.2552,5.9375C23.2552,5.9375,16.8229,5.9375,16.8229,5.9375C16.0031,5.9375,15.3385,6.60207,15.3385,7.42188C15.3385,7.42188,15.3385,14.349,15.3385,14.349C15.3385,15.1688,16.0031,15.8333,16.8229,15.8333C16.8229,15.8333,23.2552,15.8333,23.2552,15.8333C24.0751,15.8333,24.7396,15.1688,24.7396,14.349C24.7396,14.349,24.7396,14.349,24.7396,14.349ZM21.7708,17.8125C20.1313,17.8125,18.8021,19.1417,18.8021,20.7813C18.8021,22.4208,20.1313,23.75,21.7708,23.75C23.4104,23.75,24.7396,22.4208,24.7396,20.7813C24.7396,19.1417,23.4104,17.8125,21.7708,17.8125C21.7708,17.8125,21.7708,17.8125,21.7708,17.8125ZM5.9375,17.8125C4.29788,17.8125,2.96875,19.1417,2.96875,20.7813C2.96875,22.4208,4.29788,23.75,5.9375,23.75C7.57712,23.75,8.90625,22.4208,8.90625,20.7813C8.90625,19.1417,7.57712,17.8125,5.9375,17.8125C5.9375,17.8125,5.9375,17.8125,5.9375,17.8125Z" fill="url(#master_svg0_1_5758)" fill-opacity="1"/></g></svg>