<svg xmlns="http://www.w3.org/2000/svg" xmlns:xlink="http://www.w3.org/1999/xlink" fill="none" version="1.1" width="24" height="24" viewBox="0 0 24 24"><defs><clipPath id="master_svg0_10_011070"><rect x="0" y="0" width="24" height="24" rx="0"/></clipPath></defs><g clip-path="url(#master_svg0_10_011070)"><g><path d="M21.0801,14.664344451446533C21.1614,14.223674451446533,21.1614,13.773624451446533,21.0801,13.332954451446533C21.0801,13.332954451446533,21.8865,12.867274451446534,21.8865,12.867274451446534C21.9802,12.814144451446534,22.0209,12.704764451446533,21.9896,12.601624451446533C21.7802,11.926554451446533,21.4208,11.313994451446533,20.952,10.807684451446534C20.8801,10.729554451446532,20.7645,10.710804451446533,20.6707,10.763934451446534C20.6707,10.763934451446534,19.8644,11.229604451446534,19.8644,11.229604451446534C19.5237,10.938954451446534,19.1331,10.713924451446534,18.7111,10.563914451446532C18.7111,10.563914451446532,18.7111,9.632564451446534,18.7111,9.632564451446534C18.7111,9.526304451446533,18.6361,9.432544451446534,18.533,9.410664451446532C17.836,9.254394451446533,17.1266,9.260644451446534,16.464,9.410664451446532C16.3609,9.432544451446534,16.285899999999998,9.526304451446533,16.285899999999998,9.632564451446534C16.285899999999998,9.632564451446534,16.285899999999998,10.563914451446532,16.285899999999998,10.563914451446532C15.864,10.713924451446534,15.4733,10.938954451446534,15.1326,11.229604451446534C15.1326,11.229604451446534,14.3263,10.763934451446534,14.3263,10.763934451446534C14.2357,10.710804451446533,14.1169,10.729554451446532,14.045,10.807684451446534C13.5762,11.313994451446533,13.2168,11.926554451446533,13.0074,12.601624451446533C12.9762,12.704764451446533,13.0199,12.814144451446534,13.1105,12.867274451446534C13.1105,12.867274451446534,13.9169,13.332954451446533,13.9169,13.332954451446533C13.8356,13.773624451446533,13.8356,14.223674451446533,13.9169,14.664344451446533C13.9169,14.664344451446533,13.1105,15.130024451446534,13.1105,15.130024451446534C13.0168,15.183124451446533,12.9762,15.292524451446534,13.0074,15.395624451446533C13.2168,16.070724451446534,13.5762,16.680224451446534,14.045,17.189624451446534C14.1169,17.267724451446533,14.2325,17.28652445144653,14.3263,17.233324451446535C14.3263,17.233324451446535,15.1326,16.767724451446533,15.1326,16.767724451446533C15.4733,17.05832445144653,15.864,17.283324451446532,16.285899999999998,17.433424451446534C16.285899999999998,17.433424451446534,16.285899999999998,18.364724451446534,16.285899999999998,18.364724451446534C16.285899999999998,18.47102445144653,16.3609,18.564724451446533,16.464,18.586624451446532C17.161,18.742924451446534,17.8704,18.73662445144653,18.533,18.586624451446532C18.6361,18.564724451446533,18.7111,18.47102445144653,18.7111,18.364724451446534C18.7111,18.364724451446534,18.7111,17.433424451446534,18.7111,17.433424451446534C19.1331,17.283324451446532,19.5237,17.05832445144653,19.8644,16.767724451446533C19.8644,16.767724451446533,20.6707,17.233324451446535,20.6707,17.233324451446535C20.7614,17.28652445144653,20.8801,17.267724451446533,20.952,17.189624451446534C21.4208,16.68332445144653,21.7802,16.070724451446534,21.9896,15.395624451446533C22.0209,15.292524451446534,21.9771,15.183124451446533,21.8865,15.130024451446534C21.8865,15.130024451446534,21.0801,14.664344451446533,21.0801,14.664344451446533C21.0801,14.664344451446533,21.0801,14.664344451446533,21.0801,14.664344451446533ZM17.5016,15.514424451446533C16.664,15.514424451446533,15.9859,14.833114451446534,15.9859,13.998644451446534C15.9859,13.164184451446534,16.6672,12.482864451446533,17.5016,12.482864451446533C18.3361,12.482864451446533,19.0174,13.164184451446534,19.0174,13.998644451446534C19.0174,14.833114451446534,18.3392,15.514424451446533,17.5016,15.514424451446533C17.5016,15.514424451446533,17.5016,15.514424451446533,17.5016,15.514424451446533ZM5.00032,10.998334451446533C6.10356,10.998334451446533,7.00053,10.101364451446532,7.00053,8.998124451446532C7.00053,7.894884451446533,6.10356,6.997914451446533,5.00032,6.997914451446533C3.89708,6.997914451446533,3.0001100000000003,7.894884451446533,3.0001100000000003,8.998124451446532C3.0001100000000003,10.101364451446532,3.89708,10.998334451446533,5.00032,10.998334451446533C5.00032,10.998334451446533,5.00032,10.998334451446533,5.00032,10.998334451446533ZM12.0011,11.998434451446533C12.0604,11.998434451446533,12.1167,11.982814451446533,12.1761,11.979684451446534C12.4355,11.301484451446534,12.8168,10.663924451446533,13.3106,10.129494451446533C13.5418,9.879464451446534,13.87,9.735694451446534,14.2138,9.735694451446534C14.4294,9.735694451446534,14.642,9.791954451446532,14.8264,9.901344451446533C14.8264,9.901344451446533,15.0733,10.045104451446534,15.0733,10.045104451446534C15.0983,10.029484451446534,15.1233,10.016974451446533,15.1483,10.001354451446534C15.367,9.545054451446532,15.4983,9.038754451446533,15.4983,8.501194451446533C15.4983,6.566614451446533,13.9325,5.000824451446533,11.99793,5.000824451446533C10.06335,5.000824451446533,8.500689999999999,6.563484451446533,8.500689999999999,8.498064451446533C8.500689999999999,10.432644451446533,10.06648,11.998434451446533,12.0011,11.998434451446533C12.0011,11.998434451446533,12.0011,11.998434451446533,12.0011,11.998434451446533ZM15.2889,18.077224451446533C15.217,18.03972445144653,15.1451,17.995924451446534,15.0764,17.955324451446533C14.8201,18.105324451446535,14.5982,18.261624451446533,14.2169,18.261624451446533C13.8763,18.261624451446533,13.5481,18.117824451446534,13.3137,17.867824451446534C12.7418,17.249024451446534,12.3042,16.49582445144653,12.0573,15.692624451446534C11.7229,14.614334451446533,12.8355,14.139284451446533,12.8636,14.120534451446533C12.8605,14.039274451446532,12.8605,13.958024451446533,12.8636,13.876764451446533C12.8636,13.876764451446533,12.6167,13.732994451446533,12.6167,13.732994451446533C12.498,13.664234451446534,12.398,13.576724451446534,12.3105,13.479844451446533C12.2073,13.486094451446533,12.1073,13.498594451446532,12.0042,13.498594451446532C11.23535,13.498594451446532,10.51652,13.311074451446533,9.863330000000001,12.998544451446534C9.863330000000001,12.998544451446534,9.60393,12.998544451446534,9.60393,12.998544451446534C7.61309,12.998544451446534,6.00042,14.611214451446534,6.00042,16.598924451446535C6.00042,16.598924451446535,6.00042,17.499024451446534,6.00042,17.499024451446534C6.00042,18.327224451446533,6.67237,18.999224451446533,7.50058,18.999224451446533C7.50058,18.999224451446533,15.4827,18.999224451446533,15.4827,18.999224451446533C15.367,18.811624451446534,15.2889,18.599124451446535,15.2889,18.364724451446534C15.2889,18.364724451446534,15.2889,18.077224451446533,15.2889,18.077224451446533C15.2889,18.077224451446533,15.2889,18.077224451446533,15.2889,18.077224451446533ZM7.40995,12.579744451446533C7.04741,12.220334451446533,6.55048,11.998434451446533,6.00042,11.998434451446533C6.00042,11.998434451446533,4.00021,11.998434451446533,4.00021,11.998434451446533C2.89697,11.998434451446533,2,12.895404451446534,2,13.998644451446534C2,13.998644451446534,2,14.998754451446533,2,14.998754451446533C2,15.551924451446533,2.446922,15.998824451446533,3.0001100000000003,15.998824451446533C3.0001100000000003,15.998824451446533,5.059699999999999,15.998824451446533,5.059699999999999,15.998824451446533C5.25659,14.517454451446532,6.15044,13.270444451446533,7.40995,12.579744451446533C7.40995,12.579744451446533,7.40995,12.579744451446533,7.40995,12.579744451446533C7.40995,12.579744451446533,7.40995,12.579744451446533,7.40995,12.579744451446533Z" fill="#FFFFFF" fill-opacity="1"/></g></g></svg>