<svg xmlns="http://www.w3.org/2000/svg" xmlns:xlink="http://www.w3.org/1999/xlink" fill="none" version="1.1" width="38" height="38" viewBox="0 0 38 38"><defs><clipPath id="master_svg0_15_30690"><rect x="0" y="0" width="38" height="38" rx="0"/></clipPath><linearGradient x1="0.5" y1="0" x2="0.5" y2="1" id="master_svg1_1_5606"><stop offset="0%" stop-color="#0098FA" stop-opacity="1"/><stop offset="100%" stop-color="#165CFF" stop-opacity="0.4000000059604645"/></linearGradient></defs><g clip-path="url(#master_svg0_15_30690)"><g><path d="M19.000043505859374,18.99997175292969C23.372743505859376,18.99997175292969,26.916643505859376,15.456071752929688,26.916643505859376,11.083341752929687C26.916643505859376,6.710611752929688,23.372743505859376,3.1666717529296875,19.000043505859374,3.1666717529296875C14.627283505859374,3.1666717529296875,11.083343505859375,6.710611752929688,11.083343505859375,11.083341752929687C11.083343505859375,15.456071752929688,14.627283505859374,18.99997175292969,19.000043505859374,18.99997175292969C19.000043505859374,18.99997175292969,19.000043505859374,18.99997175292969,19.000043505859374,18.99997175292969ZM24.541643505859376,20.979171752929688C24.541643505859376,20.979171752929688,23.508843505859375,20.979171752929688,23.508843505859375,20.979171752929688C22.135843505859373,21.609971752929688,20.608043505859374,21.968771752929687,19.000043505859374,21.968771752929687C17.391943505859373,21.968771752929687,15.870443505859376,21.609971752929688,14.491213505859376,20.979171752929688C14.491213505859376,20.979171752929688,13.458343505859375,20.979171752929688,13.458343505859375,20.979171752929688C8.869143505859375,20.979171752929688,5.145843505859375,24.70257175292969,5.145843505859375,29.291671752929688C5.145843505859375,29.291671752929688,5.145843505859375,31.864571752929688,5.145843505859375,31.864571752929688C5.145843505859375,33.50367175292969,6.475593505859375,34.833371752929686,8.114593505859375,34.833371752929686C8.114593505859375,34.833371752929686,29.885443505859374,34.833371752929686,29.885443505859374,34.833371752929686C31.524543505859373,34.833371752929686,32.854143505859376,33.50367175292969,32.854143505859376,31.864571752929688C32.854143505859376,31.864571752929688,32.854143505859376,29.291671752929688,32.854143505859376,29.291671752929688C32.854143505859376,24.70257175292969,29.130843505859374,20.979171752929688,24.541643505859376,20.979171752929688C24.541643505859376,20.979171752929688,24.541643505859376,20.979171752929688,24.541643505859376,20.979171752929688Z" fill="url(#master_svg1_1_5606)" fill-opacity="1"/></g></g></svg>