<svg xmlns="http://www.w3.org/2000/svg" xmlns:xlink="http://www.w3.org/1999/xlink" fill="none" version="1.1" width="33.33333206176758" height="33.33333206176758" viewBox="0 0 33.33333206176758 33.33333206176758"><g><path d="M16.6667,0C7.45968,0,0,7.45968,0,16.6667C0,25.8737,7.45968,33.3333,16.6667,33.3333C25.8737,33.3333,33.3333,25.8737,33.3333,16.6667C33.3333,7.45968,25.8737,0,16.6667,0C16.6667,0,16.6667,0,16.6667,0ZM16.6667,6.45162C19.9328,6.45162,22.5807,9.09947,22.5807,12.3656C22.5807,15.6317,19.9328,18.2795,16.6667,18.2795C13.4005,18.2795,10.7527,15.6317,10.7527,12.3656C10.7527,9.09947,13.4005,6.45162,16.6667,6.45162C16.6667,6.45162,16.6667,6.45162,16.6667,6.45162ZM16.6667,29.5698C12.7218,29.5698,9.18683,27.7823,6.82123,24.9865C8.08468,22.6075,10.5578,20.9677,13.4409,20.9677C13.6022,20.9677,13.7634,20.9947,13.918,21.0417C14.7917,21.324,15.7057,21.5053,16.6667,21.5053C17.6277,21.5053,18.5483,21.324,19.4153,21.0417C19.5698,20.9947,19.7312,20.9677,19.8925,20.9677C22.7755,20.9677,25.2487,22.6075,26.5122,24.9865C24.1465,27.7823,20.6115,29.5698,16.6667,29.5698C16.6667,29.5698,16.6667,29.5698,16.6667,29.5698Z" fill="#FFFFFF" fill-opacity="0.7019608020782471"/></g></svg>