<svg xmlns="http://www.w3.org/2000/svg" xmlns:xlink="http://www.w3.org/1999/xlink" fill="none" version="1.1" width="44" height="44" viewBox="0 0 44 44"><defs><clipPath id="master_svg0_15_30721"><rect x="0" y="0" width="44" height="44" rx="0"/></clipPath><linearGradient x1="0" y1="0.4999997317790985" x2="1" y2="0.4999997317790985" id="master_svg1_1_934"><stop offset="0%" stop-color="#D4DEEC" stop-opacity="1"/><stop offset="100%" stop-color="#D4DEEC" stop-opacity="0.5"/></linearGradient><radialGradient cx="0" cy="0" r="1" gradientUnits="userSpaceOnUse" id="master_svg2_1_938" gradientTransform="translate(31.23484163286946 18.98426098921027) rotate(0.23834796529601476) scale(11.551815168462642 11.549443406853365)"><stop offset="0%" stop-color="#FFFFFF" stop-opacity="1"/><stop offset="10.589999705553055%" stop-color="#FFFFFF" stop-opacity="0.89410001039505"/><stop offset="23.649999499320984%" stop-color="#D8D8D8" stop-opacity="0.7634999752044678"/><stop offset="36.86999976634979%" stop-color="#919191" stop-opacity="0.6312999725341797"/><stop offset="49.959999322891235%" stop-color="#777777" stop-opacity="0.5004000067710876"/><stop offset="62.90000081062317%" stop-color="#565656" stop-opacity="0.3709999918937683"/><stop offset="75.65000057220459%" stop-color="#3D3D3D" stop-opacity="0.2434999942779541"/><stop offset="83.85419845581055%" stop-color="#323232" stop-opacity="0.11879999935626984"/><stop offset="100%" stop-color="#000000" stop-opacity="0"/></radialGradient></defs><g clip-path="url(#master_svg0_15_30721)"><g><ellipse cx="32.124267578125" cy="17.26666259765625" rx="8" ry="8" fill="#FF9F0A" fill-opacity="1"/></g><g><path d="M10.791015625,35.908149609375C6.316045625,35.567749609375,2.791015625,31.828849609375,2.791015625,27.266649609375C2.791015625,23.249249609375,5.524655624999999,19.870139609375002,9.233325624999999,18.888139609375C11.138965625,14.781339609375,15.299115625,11.933349609375,20.124415625,11.933349609375C25.359615625,11.933349609375,29.811915625,15.285869609375,31.451315625,19.961199609375C31.673215625,19.942799609375,31.897715625,19.933339609375,32.124415625,19.933339609375C36.542715625,19.933339609375,40.124415625,23.515049609374998,40.124415625,27.933349609375C40.124415625,32.351649609375,36.542715625,35.933349609375,32.124415625,35.933349609375L10.791015625,35.933349609375L10.791015625,35.908149609375Z" fill="url(#master_svg1_1_934)" fill-opacity="1"/></g><g style="mix-blend-mode:screen"><g><path d="M42.83936953430175,19.071756114196777C42.81266953430176,25.44775611419678,37.62406953430175,30.600656114196777,31.24026953430176,30.573856114196776C24.86443953430176,30.547056114196778,19.71150783430176,25.350656114196777,19.738175074301758,18.97475611419678C19.76497463430176,12.591156114196778,24.96136953430176,7.445899614196778,31.337269534301758,7.472659111196777C37.72096953430176,7.4994459141967775,42.86616953430176,12.688096114196778,42.83936953430175,19.071756114196777Z" fill="url(#master_svg2_1_938)" fill-opacity="0.5699999928474426"/></g></g></g></svg>